# xmcd
#
# Track frame offsets:
#	150
#	10747
#	33412
#	55895
#	75477
#	91877
#	109565
#	124230
#	141450
#	160947
#	184384
#	210382
#
# Disc length: 3054 seconds
#
# Revision: 0
# Processed by: cddbd v1.4PL0 Copyright (c) Steve Scherf et al.
# Submitted via: EasyCDDAExtractor 4.5.0.2
#
DISCID=9a0bec0c
DTITLE=이현우 - 7집 Free your mind and body
DYEAR=2001
DGENRE=Blues
TTITLE0=This is a Seventh Story
TTITLE1=Give me Love
TTITLE2=슬픈 이야기
TTITLE3=The End
TTITLE4=Leave me Alone
TTITLE5=I'll be the Man
TTITLE6=놀지마
TTITLE7=정글의 개
TTITLE8=Falling in Love Again
TTITLE9=나도 아내가 있었으면 좋겠다
TTITLE10=슬픈이야기 (Acoustic Version)
TTITLE11=까시나무 (가시나무)
EXTD=
EXTT0=
EXTT1=
EXTT2=
EXTT3=
EXTT4=
EXTT5=
EXTT6=
EXTT7=
EXTT8=
EXTT9=
EXTT10=
EXTT11=
PLAYORDER=
